PathFileType	4	(X/Y/Z)	pose2sim_0-693.trc
DataRate	CameraRate	NumFrames	NumMarkers	Units	OrigDataRate	OrigDataStartFrame	OrigNumFrames
50	50	6	22	m	50	347	694
Frame#	Time	Hip			RHip			RKnee			RAnkle			RBigToe			RSmallToe			RHeel			LHip			LKnee			LAnkle			LBigToe			LSmallToe			LHeel			Neck			Head			Nose			RShoulder			RElbow			RWrist			LShoulder			LElbow			LWrist			
		X1	Y1	Z1	X2	Y2	Z2	X3	Y3	Z3	X4	Y4	Z4	X5	Y5	Z5	X6	Y6	Z6	X7	Y7	Z7	X8	Y8	Z8	X9	Y9	Z9	X10	Y10	Z10	X11	Y11	Z11	X12	Y12	Z12	X13	Y13	Z13	X14	Y14	Z14	X15	Y15	Z15	X16	Y16	Z16	X17	Y17	Z17	X18	Y18	Z18	X19	Y19	Z19	X20	Y20	Z20	X21	Y21	Z21	X22	Y22	Z22	
347	6.94	0.15428974361134307	0.9028087144677996	-0.08524404297322903	0.05242058699501493	0.8918351707645205	-0.07997428851075239	0.013394253059987708	0.4936530180169015	-0.12326389236072459	-0.02700403532087032	0.09919346295458961	-0.14638038006216245	-0.07615850559205947	0.052375119647051716	0.03618063014144805	-0.11101757016448657	0.053498113096653595	-0.02258446139616479	-0.013333308527590074	0.057569899049125677	-0.1864885695410184	0.2582629159031355	0.8907169105757743	-0.08240914922811877	0.29156666833335065	0.49500289555436355	-0.11969038682273875	0.3130509010694275	0.10224084427592368	-0.13756479316961315	0.3550427430498322	0.05087334529390778	0.05038195882555646	0.3903944638752105	0.05522961360627713	-0.006050311695965188	0.2992241810271412	0.05487477114824219	-0.1750310312340575	0.17035845221354126	1.4788772111602015	-0.07026484571861857	0.1869329132672021	1.7129445625099482	-0.043338603744627814	0.16961977495693087	1.5979568410869065	0.0601636550311211	0.010901343187478822	1.3910666407846517	-0.08817915856399351	-0.06077332242877334	1.136294558784148	-0.09482351703445215	-0.12822798157005838	1.2754287488895428	0.08454261844156646	0.32511315698844195	1.3814957675580082	-0.08751467142618685	0.3894115887664167	1.1402816923903927	-0.09756771855783739	0.41606955692355935	1.2732734157306977	0.09207624954014412
348	6.96	0.1552652994901659	0.9081299807516273	-0.07815585619665925	0.051797612682349524	0.8997424332027957	-0.07965928060151338	0.012109088433756637	0.4976211710928457	-0.12230352950973117	-0.027845303420266525	0.09247471999198033	-0.1456836997580978	-0.07204557368987986	0.043883406170644276	0.05729648474713243	-0.1059960893029768	0.04688951247815362	-0.0069016197013684645	-0.016639725406604206	0.04292548421631592	-0.18659539404344794	0.2546841950587212	0.8980593083271283	-0.07632766966792488	0.2883304469071527	0.49598632540143406	-0.1174300904995345	0.3137022265829195	0.0912294562578832	-0.13821994272707197	0.3495398604482814	0.04227987596416135	0.05405174025376976	0.38250489470124993	0.04368499372257596	-0.009886573547916703	0.29805290725084516	0.04462569614779165	-0.17618088327145368	0.17051186662591852	1.4810801040493426	-0.06598259816149472	0.18723238710727422	1.7081031910509972	-0.04769368071366663	0.16504133071216331	1.599970876333863	0.07053923340352793	0.010056748877549601	1.3921073445009833	-0.08302252190861933	-0.05986962822496771	1.1311192590727215	-0.08714236548185532	-0.12544165534545798	1.2804349506680883	0.0829363767776404	0.32262472951541493	1.3852161577676114	-0.07306954812361866	0.38924634327810864	1.1384738316386278	-0.09090284278100172	0.41413515904856907	1.2753569370808646	0.07998990774731736
349	6.98	0.15446125673726596	0.9017349459746706	-0.08093516751742036	0.052291200764392594	0.8918864470590849	-0.0835955979144305	0.013080780423071477	0.49233093149135576	-0.11952610426846735	-0.028539127305934237	0.09790845319916842	-0.14089711790275344	-0.07589134093919254	0.05188527865272221	0.04674364442866964	-0.11155974259729566	0.053952244481188426	-0.017435737747302848	-0.013014001371893333	0.06010677739427505	-0.18529629191610794	0.25593889031196393	0.8894482256893441	-0.08193631110621016	0.2911635458133051	0.49218105600359663	-0.11498467272815174	0.31323950860399896	0.10072163145066154	-0.13840909940498974	0.3570167870148423	0.047241199585296094	0.05240033048039846	0.39362251369411455	0.0520150823230218	-0.012736247204630386	0.2986821910502572	0.05525176212377673	-0.17466166644289288	0.17078685000517266	1.4796675073064978	-0.0747989623752408	0.18470207879366718	1.714303119464178	-0.04245307146299932	0.16338707776227498	1.59696795808274	0.06071214813750766	0.012156873198461812	1.39154159190892	-0.09416883213400375	-0.06130070161867281	1.1392309636922255	-0.09209841723984463	-0.11837932501555729	1.2965685992982288	0.07320648468414795	0.324815314349602	1.3820813869259876	-0.09146621810420417	0.38571348633036456	1.141442826879763	-0.07653206249394548	0.40724092325523176	1.2920829679497248	0.08059825447628184
350	7.0	0.15526142855871664	0.9027163686171218	-0.08014822271164314	0.05166050890573392	0.8956470521230465	-0.08305317006373827	0.012861779768090033	0.4958877320420351	-0.11950388165141186	-0.027381212294002776	0.10124637138974521	-0.1427646026884588	-0.07564473654210668	0.05306516144188062	0.04349615679525802	-0.10918299603975165	0.05646450321536801	-0.017461694121947494	-0.013283750249327222	0.06082635279618489	-0.1847411363304567	0.2564814996686077	0.8918804688392274	-0.08546585574675826	0.29156825573930767	0.49296640902155403	-0.11951723303520279	0.31250244150337364	0.09976745279447462	-0.1351988962709181	0.3572370530564099	0.051921638146065624	0.05013024728917187	0.3918060362964985	0.053734128557120925	-0.010157741802962994	0.29843983700056925	0.05542980247657149	-0.17308438190006256	0.16999069296174252	1.4796594562959051	-0.06970632743766235	0.183891673342014	1.7139807188820446	-0.031614545571031424	0.16681997323574432	1.5990730235304114	0.060111824665698935	0.013027334727698538	1.3942780746818426	-0.09196677626701254	-0.06158543553032817	1.1412902247888883	-0.09339260530162505	-0.11221182976801743	1.301627412731024	0.0668375750564424	0.32521656215348643	1.3823803056306803	-0.08899553205749455	0.38975448309294947	1.1425296960293365	-0.08898164370948976	0.39930041222994545	1.2933697329559752	0.08281740781711683
351	7.02	0.15455651843487345	0.9032076312129909	-0.0786223158687849	0.052273808471830385	0.8946595619962624	-0.07981359857022921	0.011936984128482812	0.49469550590983313	-0.12312548197075249	-0.026515251348575592	0.09985235555008139	-0.14050157519054315	-0.07870104152446467	0.05105875591355396	0.047903648392045715	-0.11055947078300514	0.05216188545779649	-0.018024471770827295	-0.011177102555691914	0.05773627031815236	-0.17834009702563522	0.25698373263381036	0.8909206344166588	-0.07894439906777395	0.28916968824352657	0.4934575134569217	-0.11725394808316782	0.31459108121267465	0.10278410543870459	-0.13596794367314735	0.3564004473388891	0.050555395750721085	0.047613099548362785	0.38978965327125636	0.053402534216250824	-0.008480483977720877	0.30045403408001786	0.055754415799347895	-0.17462297782321592	0.16797887526140048	1.479169011773429	-0.06524950896904977	0.18438061642838008	1.7109541005824376	-0.03310747278742852	0.16517574862774864	1.5968349021254964	0.06471085357858128	0.012257917466855199	1.3923869812896084	-0.08531408102770675	-0.05984096967195019	1.1378457558548924	-0.09358141932507232	-0.10650425003800011	1.3022820021553192	0.06354850431262835	0.3230379884679981	1.3831037141217624	-0.08339947434606072	0.38920943763024995	1.1404999159205103	-0.07433488683141988	0.40548498301669816	1.2942329514481883	0.07223507694562008
352	7.04	0.15338503361063582	0.9109376614214861	-0.0756137707192615	0.051651285007594534	0.9005061888305884	-0.08009971868181105	0.012596595942305501	0.4956243338697577	-0.12251022879908313	-0.026885799471992534	0.0911005598647048	-0.14188305233588788	-0.07667406207645265	0.04215242388555287	0.05391715193726841	-0.1069298440217766	0.045262778323639105	-0.005294361704469725	-0.015650299923897652	0.04067613626654966	-0.18445483519685293	0.2555932406588434	0.8998963049656851	-0.07659381957239769	0.28812915334049055	0.49740910836620017	-0.11933520872825676	0.3116242369288367	0.09243634970932867	-0.13924732453352617	0.3516185292835931	0.04541467282899266	0.05743820836574508	0.38376719456046066	0.0462486915384465	-0.009227992684800984	0.29728332063687857	0.04465095285195148	-0.17691327243628566	0.16807585840848147	1.4798302746969252	-0.061453223845648546	0.18390077859099785	1.7081271377632747	-0.04107367507145817	0.16758443412352822	1.5977263700376818	0.07539398635571705	0.008963979344038671	1.390628637509102	-0.08115071318974203	-0.06010107815019682	1.1336072708252236	-0.09344823910883814	-0.10763837906255774	1.3007275754325849	0.05732123400294966	0.32153501359617326	1.3851499139847325	-0.08153963318273977	0.39096228006065276	1.1402947878935683	-0.07968196308840762	0.40320931271387517	1.2929869887813563	0.04953223841096156
